<svg width="10" height="10" viewBox="0 0 10 10" fill="none" xmlns="http://www.w3.org/2000/svg">
<circle cx="5" cy="5" r="5" fill="#FF9D42" fill-opacity="0.16"/>
<g clip-path="url(#clip0_90:7)">
<path fill-rule="evenodd" clip-rule="evenodd" d="M5 1.5625C3.10156 1.5625 1.5625 3.10156 1.5625 5C1.5625 6.89844 3.10156 8.4375 5 8.4375C6.89844 8.4375 8.4375 6.89844 8.4375 5C8.4375 3.10156 6.89844 1.5625 5 1.5625ZM6.49 4.41875C6.51744 4.38739 6.53832 4.35086 6.55143 4.3113C6.56454 4.27175 6.56961 4.22997 6.56633 4.18843C6.56306 4.14689 6.55151 4.10643 6.53237 4.06941C6.51322 4.0324 6.48687 3.9996 6.45486 3.97292C6.42285 3.94624 6.38582 3.92624 6.34597 3.91408C6.30611 3.90193 6.26423 3.89786 6.22278 3.90213C6.18133 3.9064 6.14115 3.91892 6.10461 3.93895C6.06807 3.95897 6.0359 3.98611 6.01 4.01875L4.66625 5.63094L3.97094 4.93531C3.912 4.87839 3.83306 4.84689 3.75112 4.8476C3.66919 4.84831 3.59081 4.88118 3.53287 4.93912C3.47493 4.99706 3.44206 5.07544 3.44135 5.15737C3.44064 5.23931 3.47214 5.31825 3.52906 5.37719L4.46656 6.31469C4.49727 6.34537 4.53403 6.36933 4.5745 6.38502C4.61498 6.40071 4.65828 6.4078 4.70165 6.40583C4.74501 6.40386 4.78749 6.39287 4.82638 6.37358C4.86526 6.35428 4.8997 6.32709 4.9275 6.29375L6.49 4.41875Z" fill="#FF9D42"/>
</g>
<defs>
<clipPath id="clip0_90:7">
<rect width="7.5" height="7.5" fill="white" transform="translate(1.25 1.25)"/>
</clipPath>
</defs>
</svg>
