<svg width="32" height="32" viewBox="0 0 32 32" fill="none" xmlns="http://www.w3.org/2000/svg">
<path d="M16 0C7.17576 0 0 7.17576 0 16C0 24.8242 7.17576 32 16 32C24.8242 32 32 24.8242 32 16C32 7.17576 24.8242 0 16 0ZM16 29.0909C8.77899 29.0909 2.90909 23.221 2.90909 16C2.90909 8.77899 8.77899 2.90909 16 2.90909C23.221 2.90909 29.0909 8.77899 29.0909 16C29.0909 23.221 23.221 29.0909 16 29.0909Z" fill="#56BC80"/>
<path d="M23.3245 8.24887L14.1835 20.3895L10.3241 14.7846C9.87162 14.1252 8.96657 13.9572 8.30071 14.4097C7.64131 14.8622 7.47323 15.7673 7.92576 16.4331L12.9294 23.6994C13.1944 24.0873 13.6276 24.32 14.0995 24.3264C14.1124 24.3264 14.1189 24.3264 14.1318 24.3264C14.5908 24.3264 15.0175 24.1131 15.2955 23.7446L25.6518 9.99432C26.1367 9.35432 26.0074 8.44281 25.3674 7.95796C24.7209 7.47957 23.8094 7.60887 23.3245 8.24887Z" fill="#56BC80"/>
</svg>
