<svg width="32" height="32" viewBox="0 0 32 32" fill="none" xmlns="http://www.w3.org/2000/svg">
<path fill-rule="evenodd" clip-rule="evenodd" d="M27.2 19.2C27.5918 19.2001 27.9701 19.344 28.2629 19.6044C28.5558 19.8648 28.7429 20.2236 28.7888 20.6128L28.8 20.8V24C28.8 25.2244 28.3322 26.4025 27.4923 27.2932C26.6524 28.184 25.5038 28.7202 24.2816 28.792L24 28.8H7.99995C6.77561 28.8001 5.59753 28.3323 4.70673 27.4924C3.81594 26.6524 3.27978 25.5039 3.20795 24.2816L3.19995 24V20.8C3.2004 20.3922 3.35656 20 3.63651 19.7034C3.91646 19.4069 4.29908 19.2285 4.70618 19.2046C5.11329 19.1807 5.51416 19.3131 5.82688 19.5749C6.13961 19.8366 6.34059 20.2079 6.38875 20.6128L6.39995 20.8V24C6.4 24.3919 6.54388 24.7702 6.8043 25.063C7.06471 25.3559 7.42355 25.543 7.81275 25.5888L7.99995 25.6H24C24.3918 25.6 24.7701 25.4561 25.0629 25.1957C25.3558 24.9353 25.5429 24.5764 25.5888 24.1872L25.6 24V20.8C25.6 20.3757 25.7685 19.9687 26.0686 19.6687C26.3686 19.3686 26.7756 19.2 27.2 19.2ZM17.1312 3.66883L21.9312 8.46883C22.084 8.61642 22.2059 8.79298 22.2897 8.98818C22.3736 9.18339 22.4177 9.39334 22.4196 9.60579C22.4214 9.81823 22.3809 10.0289 22.3005 10.2256C22.22 10.4222 22.1012 10.6008 21.951 10.7511C21.8008 10.9013 21.6221 11.0201 21.4255 11.1005C21.2288 11.181 21.0182 11.2215 20.8057 11.2196C20.5933 11.2178 20.3833 11.1736 20.1881 11.0898C19.9929 11.0059 19.8163 10.884 19.6688 10.7312L17.6 8.66243V20.8C17.5995 21.2078 17.4433 21.6001 17.1634 21.8966C16.8834 22.1932 16.5008 22.3716 16.0937 22.3955C15.6866 22.4194 15.2857 22.2869 14.973 22.0252C14.6603 21.7635 14.4593 21.3922 14.4112 20.9872L14.4 20.8V8.66243L12.3312 10.7312C12.0294 11.0227 11.6252 11.184 11.2057 11.1803C10.7862 11.1767 10.3849 11.0084 10.0882 10.7117C9.79159 10.4151 9.62332 10.0138 9.61967 9.59427C9.61603 9.17476 9.7773 8.77059 10.0688 8.46883L14.8688 3.66883C15.1688 3.36888 15.5757 3.20037 16 3.20037C16.4242 3.20037 16.8311 3.36888 17.1312 3.66883Z" fill="#56BC80"/>
</svg>
