<svg width="28" height="32" viewBox="0 0 28 32" fill="none" xmlns="http://www.w3.org/2000/svg">
<g clip-path="url(#clip0_67:68)">
<path d="M8.91475 32C9.67111 32 10.4533 31.9871 11.2549 31.9677C13.0004 31.9354 14.9398 31.9354 16.6853 31.9677C20.8356 32.0453 24.417 32.1164 26.4404 30.1382C27.436 29.162 27.9402 27.7851 27.9402 26.0525C27.9402 19.8723 21.676 14.8428 13.9701 14.8428C6.26424 14.8428 0 19.8723 0 26.0525C0 27.7851 0.504242 29.162 1.4998 30.1382C3.12889 31.735 5.77939 32 8.91475 32ZM13.9701 17.7519C20.0663 17.7519 25.0311 21.4756 25.0311 26.0525C25.0311 27.4424 24.5592 27.9079 24.404 28.063C23.2533 29.1879 20.0921 29.1297 16.7434 29.0651C14.9592 29.0327 12.981 29.0327 11.1968 29.0651C7.84808 29.1297 4.68687 29.1944 3.53616 28.063C3.38101 27.9079 2.90909 27.4489 2.90909 26.059C2.90909 21.4756 7.86748 17.7519 13.9701 17.7519Z" fill="#56BC80"/>
<path d="M13.9701 14.4485C17.7002 14.4485 20.5899 10.24 20.5899 6.6198C20.5899 2.96727 17.6162 0 13.9701 0C10.3241 0 7.35034 2.96727 7.35034 6.6198C7.35034 10.24 10.24 14.4485 13.9701 14.4485ZM13.9701 2.90909C16.013 2.90909 17.6808 4.5705 17.6808 6.6198C17.6808 8.76606 15.8837 11.5394 13.9701 11.5394C12.0566 11.5394 10.2594 8.76606 10.2594 6.6198C10.2594 4.5705 11.9273 2.90909 13.9701 2.90909Z" fill="#56BC80"/>
</g>
<defs>
<clipPath id="clip0_67:68">
<rect width="27.9402" height="32" fill="white"/>
</clipPath>
</defs>
</svg>
