<svg width="24" height="24" viewBox="0 0 24 24" fill="none" xmlns="http://www.w3.org/2000/svg">
<g clip-path="url(#clip0_28:15)">
<path d="M9.5 7.5V4.5H14.5V7.5" stroke="#79869F" stroke-width="1.3" stroke-linecap="round" stroke-linejoin="round"/>
<path d="M5.5 7.5H18.5C18.7652 7.5 19.0196 7.60536 19.2071 7.79289C19.3946 7.98043 19.5 8.23478 19.5 8.5V13.5H4.5V8.5C4.5 8.23478 4.60536 7.98043 4.79289 7.79289C4.98043 7.60536 5.23478 7.5 5.5 7.5V7.5Z" stroke="#79869F" stroke-width="1.3" stroke-linecap="round" stroke-linejoin="round"/>
<path d="M18.5 15.5V17.5C18.5 17.7652 18.3946 18.0196 18.2071 18.2071C18.0196 18.3946 17.7652 18.5 17.5 18.5H6.5C6.23478 18.5 5.98043 18.3946 5.79289 18.2071C5.60536 18.0196 5.5 17.7652 5.5 17.5V15.5" stroke="#79869F" stroke-width="1.3" stroke-linecap="round" stroke-linejoin="round"/>
</g>
<defs>
<clipPath id="clip0_28:15">
<rect width="16" height="16" fill="white" transform="translate(4 4)"/>
</clipPath>
</defs>
</svg>
