<svg width="33" height="32" viewBox="0 0 33 32" fill="none" xmlns="http://www.w3.org/2000/svg">
<g clip-path="url(#clip0_30:8)">
<g clip-path="url(#clip1_30:8)">
<path d="M13.25 9.25V4.75H20.75V9.25" stroke="white" stroke-width="2" stroke-linecap="round" stroke-linejoin="round"/>
<path d="M7.25 9.25H26.75C27.1478 9.25 27.5294 9.40804 27.8107 9.68934C28.092 9.97064 28.25 10.3522 28.25 10.75V18.25H5.75V10.75C5.75 10.3522 5.90804 9.97064 6.18934 9.68934C6.47064 9.40804 6.85218 9.25 7.25 9.25V9.25Z" stroke="white" stroke-width="2" stroke-linecap="round" stroke-linejoin="round"/>
<path d="M26.75 21.25V24.25C26.75 24.6478 26.592 25.0294 26.3107 25.3107C26.0294 25.592 25.6478 25.75 25.25 25.75H8.75C8.35218 25.75 7.97064 25.592 7.68934 25.3107C7.40804 25.0294 7.25 24.6478 7.25 24.25V21.25" stroke="white" stroke-width="2" stroke-linecap="round" stroke-linejoin="round"/>
</g>
</g>
<defs>
<clipPath id="clip0_30:8">
<rect width="31.8214" height="31.8214" fill="white" transform="translate(0.684814 0.10791)"/>
</clipPath>
<clipPath id="clip1_30:8">
<rect width="24" height="24" fill="white" transform="translate(5 4)"/>
</clipPath>
</defs>
</svg>
