<svg width="41" height="41" viewBox="0 0 41 41" fill="none" xmlns="http://www.w3.org/2000/svg">
<path d="M33.6001 14.8681H33.6H32.2H32V15.0681V24.9894V25.1317L32.1344 25.1784C32.9124 25.4487 33.586 25.9498 34.0631 26.6123C34.5401 27.2747 34.7973 28.0661 34.8 28.8779C34.8 28.8781 34.8 28.8783 34.8 28.8785L34.8 31.6399V31.6399C34.8 31.7947 34.7692 31.9479 34.7091 32.091C34.649 32.2341 34.5609 32.3643 34.4496 32.4741C34.3383 32.5839 34.206 32.6711 34.0602 32.7307C33.9144 32.7903 33.758 32.8209 33.6 32.8209H33.6H8.4H8.39995C8.24198 32.8209 8.08562 32.7903 7.93981 32.7307C7.79401 32.6711 7.66171 32.5839 7.5504 32.4741C7.43909 32.3643 7.35095 32.2341 7.29088 32.091C7.23082 31.9479 7.19996 31.7947 7.2 31.6399V31.6399V28.8782C7.2026 28.0663 7.45986 27.2748 7.93688 26.6123C8.41398 25.9498 9.08762 25.4487 9.86564 25.1784L10 25.1317V24.9894V15.0681V14.8681H9.8H8.4H8.39995C8.24198 14.8681 8.08562 14.8375 7.93981 14.7779C7.79401 14.7183 7.66171 14.6311 7.5504 14.5213C7.43909 14.4115 7.35095 14.2813 7.29088 14.1382C7.23082 13.9951 7.19996 13.8419 7.2 13.6871V13.6871L7.2 9.54414L7.2 9.54405C7.1999 9.29696 7.27866 9.05583 7.42552 8.85488L7.26644 8.73863L7.42552 8.85488C7.57241 8.65389 7.78008 8.50319 8.01938 8.42466L8.0195 8.42462L20.6194 4.2817C20.8664 4.2006 21.1336 4.2006 21.3806 4.2817L33.9805 8.42462L33.9806 8.42466C34.2199 8.50319 34.4276 8.65389 34.5745 8.85488C34.7213 9.05583 34.8001 9.29696 34.8 9.54405V9.54414V13.6871V13.6871C34.8 13.8419 34.7692 13.9951 34.7091 14.1382C34.649 14.2813 34.5609 14.4115 34.4496 14.5213C34.3383 14.6311 34.206 14.7183 34.0602 14.7779C33.9144 14.8375 33.758 14.8681 33.6001 14.8681ZM32.2 30.4589H32.4V30.2589V28.8779V28.8777C32.3996 28.4577 32.2302 28.0556 31.93 27.7594C31.6299 27.4634 31.2235 27.2974 30.8002 27.2969H30.8H11.2H11.1998C10.7765 27.2974 10.3701 27.4634 10.07 27.7594C9.76978 28.0556 9.60043 28.4577 9.6 28.8777V28.8779V30.2589V30.4589H9.8H32.2ZM12.4 24.735V24.935H12.6H15.4H15.6V24.735V15.0681V14.8681H15.4H12.6H12.4V15.0681V24.735ZM18 24.735V24.935H18.2H23.8H24V24.735V15.0681V14.8681H23.8H18.2H18V15.0681V24.735ZM26.4 24.735V24.935H26.6H29.4H29.6V24.735V15.0681V14.8681H29.4H26.6H26.4V15.0681V24.735ZM9.6 12.3061V12.5061H9.8H32.2H32.4V12.3061V10.5394V10.3946L32.2625 10.3494L21.0625 6.66633L21 6.64579L20.9375 6.66633L9.73752 10.3494L9.6 10.3946V10.5394V12.3061Z" fill="#56BC80" stroke="#F5FBF8" stroke-width="0.4"/>
</svg>
