<svg width="41" height="32" viewBox="0 0 41 32" fill="none" xmlns="http://www.w3.org/2000/svg">
<path d="M37.9546 10.0488L37.9553 10.0492L39.9063 11.1193C39.9066 11.1195 39.9069 11.1196 39.9071 11.1198C40.1775 11.2715 40.4026 11.4921 40.5595 11.7589C40.7165 12.026 40.7995 12.3298 40.8 12.6393V19.3375C40.8 19.8007 40.6155 20.245 40.2869 20.5727C39.9582 20.9005 39.5124 21.0847 39.0473 21.0847C38.5823 21.0847 38.1365 20.9005 37.8078 20.5727C37.4792 20.245 37.2947 19.8007 37.2947 19.3375V13.7684V13.4276L36.9972 13.5937L33.0918 15.7746L32.9893 15.8319V15.9493V25.1792C32.9893 26.6753 32.3934 28.1102 31.3324 29.1683C30.2713 30.2263 28.8321 30.8209 27.3313 30.8209H11.71C10.2093 30.8209 8.77006 30.2263 7.70903 29.1683C6.64801 28.1102 6.05203 26.6753 6.05203 25.1792V15.9493V15.8313L5.94878 15.7742L1.0883 13.088C1.08802 13.0878 1.08774 13.0876 1.08747 13.0875C0.818081 12.9351 0.594077 12.7142 0.43821 12.4474C0.282184 12.1804 0.2 11.877 0.2 11.568C0.2 11.259 0.282184 10.9555 0.43821 10.6885C0.594095 10.4217 0.818135 10.2009 1.08756 10.0484C1.08781 10.0483 1.08806 10.0481 1.0883 10.048L18.6156 0.337708H18.7787H18.8171L18.8528 0.323452C18.9621 0.279832 19.0749 0.245518 19.1899 0.220874H19.5207H19.87C19.9778 0.24523 20.0832 0.279068 20.185 0.321998L20.2223 0.337708H20.2627H20.4258L37.9546 10.0488ZM9.85412 17.9357L9.55736 17.7716V18.1107V25.1792C9.55736 25.7488 9.7843 26.295 10.1881 26.6977C10.5918 27.1003 11.1393 27.3264 11.71 27.3264H27.3313C27.9021 27.3264 28.4496 27.1003 28.8533 26.6977C29.2571 26.295 29.484 25.7488 29.484 25.1792V18.1107V17.7716L29.1873 17.9357L20.3807 22.8038L20.3806 22.8036L20.3726 22.8085C20.3077 22.8485 20.2367 22.8779 20.1625 22.8956H20.0089H19.9963L19.9839 22.8972C19.8384 22.9155 19.6911 22.9155 19.5456 22.8972L19.5207 22.8941L19.4958 22.8972C19.3502 22.9155 19.203 22.9155 19.0575 22.8972L19.045 22.8956H19.0325H18.8952L18.6497 22.7977L9.85412 17.9357ZM19.4237 19.2397L19.5207 19.2935L19.6177 19.2397L33.1692 11.7234L33.4845 11.5485L33.1692 11.3736L19.6177 3.85728L19.5207 3.80348L19.4237 3.85728L5.87219 11.3736L5.55686 11.5485L5.87219 11.7234L19.4237 19.2397Z" fill="#56BC80" stroke="#F5FBF8" stroke-width="0.4"/>
</svg>
