<svg width="41" height="41" viewBox="0 0 41 41" fill="none" xmlns="http://www.w3.org/2000/svg">
<g clip-path="url(#clip0_41:24)">
<path d="M40.9413 20.0184C40.9405 19.6127 40.7298 19.2363 40.3844 19.0233L36.3192 16.5174L40.3887 13.9845C40.7319 13.7709 40.9407 13.3955 40.9413 12.9914C40.942 12.5872 40.7342 12.2111 40.3916 11.9965L21.5636 0.199701C21.183 -0.0387351 20.6997 -0.0387351 20.3191 0.199701L1.49109 11.9965C1.14859 12.2111 0.94086 12.5872 0.941407 12.9914C0.942032 13.3956 1.15086 13.771 1.49406 13.9845L5.53561 16.5L1.49226 19.0272C1.1493 19.2416 0.941095 19.6176 0.941485 20.022C0.941876 20.4265 1.15078 20.8021 1.49414 21.0159L5.53569 23.5313L1.49226 26.0584C1.14984 26.2725 0.94172 26.6477 0.941485 27.0515C0.941251 27.4554 1.14898 27.8308 1.49117 28.0452L20.3192 39.842C20.5095 39.9613 20.7255 40.0209 20.9414 40.0209C21.1573 40.0209 21.3734 39.9613 21.5636 39.842L40.3916 28.0452C40.7349 27.8301 40.9428 27.453 40.9413 27.0479C40.9398 26.6428 40.7292 26.2672 40.3844 26.0546L36.3192 23.5487L40.3887 21.0158C40.7331 20.8014 40.9422 20.4241 40.9413 20.0184ZM4.32577 12.9864L20.9414 2.57579L37.557 12.9864C37.3974 13.0858 21.4176 23.0317 20.9414 23.3281L4.32577 12.9864ZM37.5494 27.0603L20.9414 37.4661L4.32249 27.0534L7.7513 24.9104L20.3222 32.7346C20.5117 32.8525 20.7266 32.9115 20.9414 32.9115C21.1563 32.9115 21.3711 32.8525 21.5606 32.7346L34.0968 24.9319L37.5494 27.0603ZM20.9414 30.3594L4.32772 20.0189L7.7513 17.8792L20.3222 25.7034C20.5117 25.8213 20.7266 25.8803 20.9414 25.8803C21.1563 25.8803 21.3711 25.8213 21.5606 25.7034L34.0968 17.9007L37.5441 20.0257C37.4488 20.085 21.3813 30.0855 20.9414 30.3594Z" fill="#56BC80" stroke="#56BC80" stroke-width="0.5"/>
</g>
<defs>
<clipPath id="clip0_41:24">
<rect width="40" height="40" fill="white" transform="translate(0.941406 0.020874)"/>
</clipPath>
</defs>
</svg>
