<svg width="41" height="41" viewBox="0 0 41 41" fill="none" xmlns="http://www.w3.org/2000/svg">
<path d="M19.4511 29.1662C15.9668 29.1662 14.5968 27.6101 14.4108 25.6143H10.6897C10.8927 29.3185 13.6666 31.3989 16.914 32.0923V35.7627H21.9882V32.1262C25.2864 31.5004 27.9081 29.5891 27.9081 26.1217C27.9081 21.3182 23.798 19.6775 19.9585 18.6796C16.1191 17.6817 14.8844 16.6499 14.8844 15.0431C14.8844 13.1995 16.5927 11.914 19.4511 11.914C22.4618 11.914 23.5781 13.3517 23.6796 15.4659H27.4176C27.2992 12.5567 25.5232 9.88433 21.9882 9.02172V5.31757H16.914V8.97098C13.6327 9.68136 10.9941 11.8125 10.9941 15.0769C10.9941 18.984 14.2247 20.9291 18.9437 22.0624C23.1722 23.0772 24.0179 24.5656 24.0179 26.1386C24.0179 27.3057 23.1891 29.1662 19.4511 29.1662Z" fill="#56BC80"/>
</svg>
