<svg width="41" height="41" viewBox="0 0 41 41" fill="none" xmlns="http://www.w3.org/2000/svg">
<g clip-path="url(#clip0_41:17)">
<path d="M39.3831 0.020874H34.6286C33.9722 0.020874 33.44 0.553061 33.44 1.2095V2.39812H23.6473C23.1566 1.01472 21.8354 0.020874 20.2859 0.020874C18.7363 0.020874 17.4151 1.01472 16.9244 2.39812H7.13175V1.2095C7.13175 0.553061 6.59956 0.020874 5.94312 0.020874H1.18862C0.532187 0.020874 0 0.553061 0 1.2095V5.964C0 6.62044 0.532187 7.15262 1.18862 7.15262H5.94312C6.59956 7.15262 7.13175 6.62044 7.13175 5.964V4.75952H12.0746C7.78636 7.47545 5.17963 12.0636 4.86607 16.9344C3.46587 17.4158 2.45649 18.7452 2.45649 20.3067C2.45649 22.273 4.05614 23.8726 6.02237 23.8726C7.98859 23.8726 9.58824 22.273 9.58824 20.3067C9.58824 18.771 8.61238 17.459 7.24823 16.958C7.67028 11.3598 11.7015 6.53818 17.0921 5.17016C17.6764 6.34388 18.8881 7.15262 20.2859 7.15262C21.6836 7.15262 22.8953 6.34388 23.4796 5.17023C28.8703 6.53826 32.9015 11.3599 33.3235 16.9581C31.9593 17.459 30.9835 18.771 30.9835 20.3067C30.9835 22.273 32.5831 23.8726 34.5494 23.8726C36.5156 23.8726 38.1152 22.273 38.1152 20.3067C38.1152 18.7452 37.1059 17.4158 35.7057 16.9344C35.3915 12.0539 32.777 7.48599 28.4971 4.77537H33.44V5.964C33.44 6.62044 33.9722 7.15262 34.6286 7.15262H39.3831C40.0395 7.15262 40.5717 6.62044 40.5717 5.964V1.2095C40.5717 0.553061 40.0395 0.020874 39.3831 0.020874ZM4.7545 4.77537H2.37725V2.39812H4.7545V4.77537ZM6.02237 21.4954C5.36696 21.4954 4.83374 20.9621 4.83374 20.3067C4.83374 19.6513 5.36696 19.1181 6.02237 19.1181C6.67777 19.1181 7.21099 19.6513 7.21099 20.3067C7.21099 20.9621 6.67777 21.4954 6.02237 21.4954ZM20.2859 4.77537C19.6305 4.77537 19.0972 4.24216 19.0972 3.58675C19.0972 2.93134 19.6305 2.39812 20.2859 2.39812C20.9413 2.39812 21.4745 2.93134 21.4745 3.58675C21.4745 4.24216 20.9413 4.77537 20.2859 4.77537ZM34.5494 19.1181C35.2048 19.1181 35.738 19.6513 35.738 20.3067C35.738 20.9621 35.2048 21.4954 34.5494 21.4954C33.894 21.4954 33.3607 20.9621 33.3607 20.3067C33.3607 19.6513 33.894 19.1181 34.5494 19.1181ZM38.1945 4.77537H35.8172V2.39812H38.1945V4.77537Z" fill="#56BC80"/>
<path d="M30.7839 24.4019L21.2749 10.1384C21.2746 10.138 21.2742 10.1375 21.2739 10.1369C21.2705 10.1319 21.2668 10.127 21.2633 10.122C21.247 10.0983 21.2298 10.0755 21.2119 10.0533C20.711 9.43089 19.7572 9.47289 19.3087 10.122C19.3052 10.127 19.3015 10.1319 19.2981 10.1369C19.2978 10.1375 19.2974 10.1379 19.2971 10.1384L9.78806 24.4019C9.47371 24.8733 9.53591 25.5011 9.93656 25.9017C12.308 28.2732 13.8174 31.3731 14.2286 34.6897C14.0441 34.8389 13.8658 34.9987 13.6969 35.1716C12.5805 36.3136 11.9656 37.8168 11.9656 39.404C11.9656 40.0604 12.4978 40.5926 13.1542 40.5926H27.4177C28.0742 40.5926 28.6064 40.0604 28.6064 39.404C28.6064 37.8168 27.9915 36.3136 26.8752 35.1715C26.7062 34.9986 26.528 34.8389 26.3434 34.6896C26.7545 31.3729 28.2639 28.273 30.6354 25.9017C31.0361 25.5011 31.0983 24.8733 30.7839 24.4019ZM20.286 23.8726C20.9414 23.8726 21.4746 24.4058 21.4746 25.0612C21.4746 25.7166 20.9414 26.2499 20.286 26.2499C19.6306 26.2499 19.0974 25.7166 19.0974 25.0612C19.0974 24.4058 19.6306 23.8726 20.286 23.8726ZM14.5456 38.2154C15.0401 36.8022 16.3807 35.7589 17.9087 35.7589H22.6632C24.1913 35.7589 25.5319 36.8022 26.0264 38.2154H14.5456ZM24.109 33.5625C23.6415 33.4432 23.1568 33.3816 22.6632 33.3816H17.9087C17.4152 33.3816 16.9305 33.4432 16.463 33.5626C15.9067 30.3589 14.462 27.3642 12.2909 24.9333L19.0974 14.7235V21.6999C17.7139 22.1905 16.7201 23.5117 16.7201 25.0613C16.7201 27.0275 18.3198 28.6272 20.286 28.6272C22.2522 28.6272 23.8519 27.0275 23.8519 25.0613C23.8519 23.5117 22.8581 22.1905 21.4746 21.6999V14.7235L28.2812 24.9333C26.1099 27.364 24.6652 30.3588 24.109 33.5625Z" fill="#56BC80"/>
</g>
<defs>
<clipPath id="clip0_41:17">
<rect width="40.5717" height="40.5717" fill="white" transform="translate(0 0.020874)"/>
</clipPath>
</defs>
</svg>
