<svg width="40" height="41" viewBox="0 0 40 41" fill="none" xmlns="http://www.w3.org/2000/svg">
<g clip-path="url(#clip0_41:9)">
<path d="M37.0636 9.5863L39.0036 7.64661C39.3259 7.32404 39.4321 6.84369 39.2755 6.41553C39.119 5.98706 38.728 5.6886 38.2733 5.65015L34.6744 5.3465L34.3707 1.74756C34.3326 1.29315 34.0338 0.902222 33.6057 0.745667C33.1775 0.588806 32.6971 0.695007 32.3746 1.01758L30.4346 2.95728C27.2974 1.03375 23.7103 0.020874 20 0.020874C14.6579 0.020874 9.63531 2.10126 5.85785 5.87872C2.08038 9.65619 0 14.6788 0 20.0209C0 25.363 2.08038 30.3856 5.85785 34.163C9.63531 37.9405 14.6579 40.0209 20 40.0209C25.3421 40.0209 30.3647 37.9405 34.1422 34.163C37.9196 30.3856 40 25.363 40 20.0209C40 16.3105 38.9871 12.7238 37.0636 9.5863ZM32.4219 6.52966C32.4701 7.09912 32.9218 7.55078 33.4912 7.599L35.5618 7.77356L32.7591 10.5763L29.7025 10.3184L29.4446 7.26178L32.2473 4.45905L32.4219 6.52966ZM23.9844 20.0209C23.9844 22.2178 22.197 24.0052 20 24.0052C17.803 24.0052 16.0156 22.2178 16.0156 20.0209C16.0156 17.8239 17.803 16.0365 20 16.0365C20.6729 16.0365 21.3068 16.2047 21.8631 16.5004L19.1714 19.1923C18.7137 19.6498 18.7137 20.3917 19.1714 20.8494C19.4 21.0783 19.7 21.1927 20 21.1927C20.3 21.1927 20.6 21.0783 20.8286 20.8494L23.5205 18.1578C23.8162 18.7141 23.9844 19.348 23.9844 20.0209ZM23.5666 14.7969C22.5504 14.1011 21.322 13.6927 20 13.6927C16.5106 13.6927 13.6719 16.5315 13.6719 20.0209C13.6719 23.5103 16.5106 26.349 20 26.349C23.4894 26.349 26.3281 23.5103 26.3281 20.0209C26.3281 18.6989 25.9198 17.4705 25.224 16.4543L28.5699 13.1083C30.0986 14.9998 31.0156 17.4052 31.0156 20.0209C31.0156 26.0948 26.0739 31.0365 20 31.0365C13.9261 31.0365 8.98438 26.0948 8.98438 20.0209C8.98438 13.947 13.9261 9.00525 20 9.00525C22.6157 9.00525 25.0211 9.9223 26.9125 11.4509L23.5666 14.7969ZM32.4847 32.5056C29.1501 35.8406 24.7162 37.6771 20 37.6771C15.2838 37.6771 10.8499 35.8406 7.51526 32.5056C4.1803 29.171 2.34375 24.7371 2.34375 20.0209C2.34375 15.3047 4.1803 10.8708 7.51526 7.53613C10.8499 4.20117 15.2838 2.36462 20 2.36462C23.0853 2.36462 26.0739 3.15717 28.7244 4.66748L27.4026 5.9892C27.189 6.20282 27.0673 6.48907 27.0596 6.78784C27.0587 6.83057 27.0599 6.87329 27.0633 6.91632L27.2211 8.78613C25.1376 7.44214 22.6584 6.6615 20 6.6615C12.6337 6.6615 6.64062 12.6545 6.64062 20.0209C6.64062 27.3872 12.6337 33.3802 20 33.3802C27.3663 33.3802 33.3594 27.3872 33.3594 20.0209C33.3594 17.3625 32.5787 14.8832 31.2347 12.7998L33.1046 12.9576C33.1375 12.96 33.1705 12.9615 33.2031 12.9615C33.2086 12.9615 33.2144 12.9609 33.2199 12.9606C33.2355 12.9606 33.2507 12.9594 33.2663 12.9585C33.2916 12.957 33.3173 12.9554 33.3423 12.9524C33.3578 12.9503 33.3734 12.9478 33.389 12.9454C33.4137 12.9414 33.4381 12.9368 33.4625 12.9313C33.4781 12.9277 33.4933 12.9237 33.5086 12.9197C33.5324 12.9133 33.5559 12.906 33.5794 12.8981C33.5947 12.8929 33.6096 12.8877 33.6246 12.8819C33.6475 12.873 33.67 12.8633 33.6926 12.8526C33.707 12.8462 33.7213 12.8398 33.7357 12.8325C33.7582 12.8209 33.7802 12.808 33.8019 12.7952C33.815 12.7873 33.8281 12.78 33.8409 12.772C33.8641 12.7568 33.8864 12.7403 33.9087 12.7235C33.9191 12.7156 33.9297 12.7086 33.9398 12.7003C33.9716 12.6747 34.0024 12.6475 34.0317 12.6182L35.3534 11.2965C36.8637 13.947 37.6562 16.9355 37.6562 20.0209C37.6562 24.7371 35.8197 29.171 32.4847 32.5056Z" fill="#56BC80"/>
</g>
<defs>
<clipPath id="clip0_41:9">
<rect width="40" height="40" fill="white" transform="translate(0 0.020874)"/>
</clipPath>
</defs>
</svg>
