<svg width="41" height="41" viewBox="0 0 41 41" fill="none" xmlns="http://www.w3.org/2000/svg">
<path d="M35.5192 15.2434H25.3708V5.09503H35.5192V15.2434ZM27.9079 12.7063H32.9821V7.63212H27.9079V12.7063Z" fill="#56BC80"/>
<path d="M21.5654 19.0491V11.4378H11.417V29.1974H29.1766V19.0491H21.5654ZM13.9541 13.9749H19.0283V19.0491H13.9541V13.9749ZM19.0283 26.6604H13.9541V21.5862H19.0283V26.6604ZM26.6395 26.6604H21.5654V21.5862H26.6395V26.6604Z" fill="#56BC80"/>
<path d="M32.9822 35.5401H7.61131C6.93864 35.5395 6.29371 35.2719 5.81806 34.7963C5.34241 34.3206 5.07489 33.6757 5.07422 33.003V7.63212C5.07489 6.95945 5.34241 6.31452 5.81806 5.83887C6.29371 5.36322 6.93864 5.0957 7.61131 5.09503H20.2968V7.63212H7.61131V33.003H32.9822V20.3176H35.5193V33.003C35.5186 33.6757 35.2511 34.3206 34.7755 34.7963C34.2998 35.2719 33.6549 35.5395 32.9822 35.5401Z" fill="#56BC80"/>
</svg>
