<svg width="13" height="12" viewBox="0 0 13 12" fill="none" xmlns="http://www.w3.org/2000/svg">
<g clip-path="url(#clip0_29:50)">
<path fill-rule="evenodd" clip-rule="evenodd" d="M6.63399 0.5C3.62051 0.5 1.17749 2.9625 1.17749 6C1.17749 9.0375 3.62051 11.5 6.63399 11.5C9.64746 11.5 12.0905 9.0375 12.0905 6C12.0905 2.9625 9.64746 0.5 6.63399 0.5ZM8.99913 5.07C9.04268 5.01982 9.07584 4.96137 9.09665 4.89808C9.11746 4.8348 9.1255 4.76796 9.1203 4.70149C9.1151 4.63503 9.09677 4.57028 9.06638 4.51106C9.03599 4.45185 8.99416 4.39935 8.94335 4.35667C8.89254 4.31399 8.83377 4.28198 8.7705 4.26253C8.70724 4.24308 8.64075 4.23658 8.57495 4.24341C8.50916 4.25025 8.44538 4.27027 8.38738 4.30232C8.32938 4.33436 8.27832 4.37777 8.23721 4.43L6.10421 7.0095L5.00051 5.8965C4.90695 5.80542 4.78165 5.75502 4.65159 5.75616C4.52153 5.7573 4.39712 5.80989 4.30514 5.90259C4.21317 5.99529 4.16101 6.1207 4.15988 6.2518C4.15875 6.3829 4.20874 6.5092 4.2991 6.6035L5.78724 8.1035C5.83598 8.1526 5.89433 8.19092 5.95858 8.21603C6.02283 8.24114 6.09156 8.25248 6.1604 8.24932C6.22923 8.24617 6.29666 8.2286 6.35839 8.19772C6.42011 8.16685 6.47478 8.12335 6.5189 8.07L8.99913 5.07Z" fill="#3CD278"/>
</g>
<defs>
<clipPath id="clip0_29:50">
<rect width="11.9051" height="12" fill="white" transform="translate(0.681396)"/>
</clipPath>
</defs>
</svg>
