<svg width="46" height="46" viewBox="0 0 46 46" fill="none" xmlns="http://www.w3.org/2000/svg">
<path d="M4.94727 16.6324L22.3118 25.7354C22.486 25.8267 22.6794 25.8744 22.8758 25.8744C23.0721 25.8744 23.2655 25.8267 23.4397 25.7354L40.8042 16.634V32.4465C40.8043 33.8103 40.2867 35.1224 39.3575 36.1137C38.4282 37.105 37.1579 37.7004 35.8071 37.7776L35.5072 37.7858H10.2443C8.89131 37.7859 7.58955 37.2641 6.60609 36.3275C5.62263 35.3908 5.03202 34.1104 4.95542 32.7488L4.94727 32.4465V16.6324ZM10.2443 8.21436H35.5072C36.8602 8.21427 38.162 8.73605 39.1454 9.67267C40.1289 10.6093 40.7195 11.8897 40.7961 13.2514L40.8042 13.5536V13.8559L22.8758 23.2531L4.94727 13.8559V13.5536C4.94718 12.1898 5.46484 10.8777 6.39405 9.88641C7.32326 8.8951 8.59358 8.29978 9.94442 8.22257L10.2443 8.21436H35.5072H10.2443Z" fill="#FF7243"/>
</svg>
