<svg width="36" height="37" viewBox="0 0 36 37" fill="none" xmlns="http://www.w3.org/2000/svg">
<g clip-path="url(#clip0_41:56)">
<path d="M34.6815 13.6244L23.304 2.24536C21.8959 0.84134 19.9885 0.0529175 18 0.0529175C16.0115 0.0529175 14.1042 0.84134 12.696 2.24536L1.31852 13.6244C0.899156 14.041 0.566673 14.5368 0.340342 15.0829C0.114011 15.6291 -0.0016656 16.2147 1.81192e-05 16.8059V31.5314C1.81192e-05 32.7248 0.474124 33.8694 1.31804 34.7133C2.16195 35.5573 3.30654 36.0314 4.50002 36.0314H31.5C32.6935 36.0314 33.8381 35.5573 34.682 34.7133C35.5259 33.8694 36 32.7248 36 31.5314V16.8059C36.0017 16.2147 35.886 15.6291 35.6597 15.0829C35.4334 14.5368 35.1009 14.041 34.6815 13.6244ZM22.5 33.0314H13.5V27.1304C13.5 25.9369 13.9741 24.7923 14.818 23.9484C15.662 23.1045 16.8065 22.6304 18 22.6304C19.1935 22.6304 20.3381 23.1045 21.182 23.9484C22.0259 24.7923 22.5 25.9369 22.5 27.1304V33.0314ZM33 31.5314C33 31.9292 32.842 32.3107 32.5607 32.592C32.2794 32.8733 31.8978 33.0314 31.5 33.0314H25.5V27.1304C25.5 25.1412 24.7098 23.2336 23.3033 21.8271C21.8968 20.4205 19.9891 19.6304 18 19.6304C16.0109 19.6304 14.1032 20.4205 12.6967 21.8271C11.2902 23.2336 10.5 25.1412 10.5 27.1304V33.0314H4.50002C4.10219 33.0314 3.72066 32.8733 3.43936 32.592C3.15805 32.3107 3.00002 31.9292 3.00002 31.5314V16.8059C3.00141 16.4083 3.1593 16.0273 3.43952 15.7454L14.817 4.37086C15.6626 3.52925 16.807 3.05677 18 3.05677C19.193 3.05677 20.3375 3.52925 21.183 4.37086L32.5605 15.7499C32.8396 16.0307 32.9974 16.4099 33 16.8059V31.5314Z" fill="#56BC80"/>
</g>
<defs>
<clipPath id="clip0_41:56">
<rect width="36" height="36" fill="white" transform="translate(0 0.020874)"/>
</clipPath>
</defs>
</svg>
