<svg width="92" height="80" viewBox="0 0 92 80" fill="none" xmlns="http://www.w3.org/2000/svg">
<path d="M3.486 20.466H21.798V24.792H9.492V46.674H22.47V51H3.486V20.466ZM11.088 37.098C11.228 36.65 11.41 36.174 11.634 35.67C11.858 35.166 12.138 34.704 12.474 34.284C12.81 33.864 13.202 33.528 13.65 33.276C14.126 32.996 14.672 32.856 15.288 32.856H20.37V37.098H11.088Z" fill="#56BC80"/>
<path d="M36.8714 45.624C36.8714 47.584 36.6614 49.25 36.2414 50.622C35.8214 51.994 35.1914 53.212 34.3514 54.276C33.5114 55.368 32.4754 56.376 31.2434 57.3C30.0114 58.224 28.5834 59.232 26.9594 60.324L24.2714 56.88C25.3074 56.012 26.2314 55.214 27.0434 54.486C27.8834 53.758 28.5834 52.974 29.1434 52.134C29.7314 51.294 30.1654 50.37 30.4454 49.362C30.7534 48.326 30.9074 47.08 30.9074 45.624V20.466H36.8714V45.624ZM64.1353 40.122C64.1353 41.914 63.7993 43.524 63.1273 44.952C62.4833 46.352 61.6293 47.542 60.5653 48.522C59.5293 49.502 58.3253 50.258 56.9533 50.79C55.6093 51.294 54.2513 51.546 52.8793 51.546C51.3953 51.546 49.9673 51.294 48.5953 50.79C47.2513 50.286 46.0613 49.558 45.0253 48.606C43.9893 47.626 43.1633 46.422 42.5473 44.994C41.9313 43.566 41.6233 41.942 41.6233 40.122C41.6233 38.162 41.9733 36.468 42.6733 35.04C43.4013 33.584 44.3113 32.394 45.4033 31.47C46.5233 30.546 47.7413 29.86 49.0573 29.412C50.4013 28.964 51.6753 28.74 52.8793 28.74C54.5593 28.74 56.0853 29.02 57.4573 29.58C58.8293 30.14 60.0053 30.924 60.9853 31.932C61.9933 32.94 62.7633 34.144 63.2953 35.544C63.8553 36.916 64.1353 38.442 64.1353 40.122ZM52.8793 47.262C53.6913 47.262 54.4053 47.08 55.0213 46.716C55.6653 46.324 56.1973 45.806 56.6173 45.162C57.0373 44.518 57.3453 43.762 57.5413 42.894C57.7653 42.026 57.8773 41.102 57.8773 40.122C57.8773 39.142 57.7653 38.232 57.5413 37.392C57.3453 36.524 57.0373 35.768 56.6173 35.124C56.1973 34.48 55.6653 33.976 55.0213 33.612C54.4053 33.22 53.6913 33.024 52.8793 33.024C52.0673 33.024 51.3393 33.22 50.6953 33.612C50.0793 33.976 49.5613 34.48 49.1413 35.124C48.7213 35.768 48.3993 36.524 48.1753 37.392C47.9513 38.232 47.8393 39.142 47.8393 40.122C47.8393 41.186 47.9513 42.152 48.1753 43.02C48.4273 43.888 48.7633 44.644 49.1833 45.288C49.6313 45.904 50.1633 46.394 50.7793 46.758C51.4233 47.094 52.1233 47.262 52.8793 47.262ZM79.6901 33.15C79.2141 33.178 78.8081 33.108 78.4721 32.94C78.1361 32.744 77.8421 32.506 77.5901 32.226C77.3381 31.918 77.1001 31.568 76.8761 31.176C76.6521 30.756 76.4421 30.336 76.2461 29.916C77.0581 29.58 77.8701 29.328 78.6821 29.16C79.5221 28.992 80.3061 28.908 81.0341 28.908C82.3781 28.908 83.5821 29.216 84.6461 29.832C85.7101 30.448 86.6061 31.26 87.3341 32.268C88.0901 33.248 88.6641 34.368 89.0561 35.628C89.4761 36.86 89.6861 38.106 89.6861 39.366C89.6861 41.074 89.4201 42.684 88.8881 44.196C88.3561 45.68 87.5861 46.982 86.5781 48.102C85.5701 49.194 84.3521 50.062 82.9241 50.706C81.4961 51.322 79.9001 51.63 78.1361 51.63C76.5961 51.63 75.0981 51.448 73.6421 51.084C72.1861 50.748 70.6041 50.132 68.8961 49.236V19.164H74.7341V46.884C75.3781 47.052 75.9661 47.164 76.4981 47.22C77.0301 47.276 77.5761 47.304 78.1361 47.304C78.9481 47.304 79.6761 47.108 80.3201 46.716C80.9921 46.324 81.5521 45.778 82.0001 45.078C82.4761 44.378 82.8261 43.538 83.0501 42.558C83.3021 41.578 83.4281 40.514 83.4281 39.366C83.4281 38.694 83.3581 37.994 83.2181 37.266C83.1061 36.51 82.8961 35.824 82.5881 35.208C82.3081 34.592 81.9301 34.088 81.4541 33.696C80.9781 33.304 80.3901 33.122 79.6901 33.15Z" fill="#37383D"/>
</svg>
