<svg width="16" height="16" viewBox="0 0 16 16" fill="none" xmlns="http://www.w3.org/2000/svg">
<path d="M10.0001 14.6667C9.74876 14.6667 9.51676 14.5247 9.40342 14.298L7.42476 10.3407C7.31609 10.1233 7.33476 9.86334 7.47276 9.66268L10.6668 5.33334L6.33676 8.52668C6.13609 8.66534 5.87609 8.68268 5.65876 8.57468L1.70209 6.59668C1.46476 6.47734 1.32009 6.22868 1.33476 5.96334C1.34876 5.69801 1.52009 5.46601 1.76943 5.37468L14.4361 0.708009C14.6794 0.619342 14.9534 0.677342 15.1381 0.862009C15.3221 1.04534 15.3821 1.32001 15.2921 1.56401L10.6254 14.2307C10.5334 14.48 10.3021 14.6513 10.0368 14.6653C10.0248 14.666 10.0121 14.6667 10.0001 14.6667Z" fill="white"/>
</svg>
